<?xml version="1.0" encoding="utf-8"?>
<!-- Generator: Adobe Illustrator 21.0.0, SVG Export Plug-In . SVG Version: 6.00 Build 0)  -->
<svg version="1.1" id="Calque_1" xmlns="http://www.w3.org/2000/svg" xmlns:xlink="http://www.w3.org/1999/xlink" x="0px" y="0px"
	 viewBox="0 0 48 60" style="enable-background:new 0 0 48 60;" xml:space="preserve">
<style type="text/css">
	.st0{fill:#FFFFFF;}
</style>
<g id="XMLID_1_">
	<g>
		<path class="st0" d="M14.6,15.9c0,0,1,3.2,4.9,5.2c2,1,4.1,1.5,6.1,1.4c-1-5.4,0.8-10.2,4.2-10.9c1.5-0.3,3.1,0.3,4.4,1.5
			c0.4-0.1,0.8-0.1,1.3,0c1.7,0.3,3.1,0.7,3.1,0.9c0,0.2-1.1,0.8-2.6,1.2c0.1,0.1,0.1,0.2,0.2,0.3c0,0,0.1-0.1,0.1-0.1
			c0,0,0,0-0.1,0.1c0,0.1,0.1,0.1,0.1,0.2c1.3,0.3,2.3,0.6,2.3,0.8c0,0.2-0.6,0.5-1.5,0.8c0.4,0.9,0.7,1.9,0.9,2.9
			c0.7,3.2,0.3,6.2-0.7,8.4C35.6,34.7,30.1,39,23.6,39c-6.1,0-11.3-3.8-13.4-9.2c2.4,1.8,5.3,2.8,8.5,2.8c1.8,0,3.5-0.3,5.1-0.9
			c-1.7,0.1-3.5-0.1-5.2-0.8c-5.8-2.2-6.9-9.1-6.9-9.1c-0.4-2.8,0.2-3,1.4-0.4c0,0,1.4,3,5.5,4.6c0.1,0,0.2,0.1,0.3,0.1
			c-0.1,0-0.1-0.1-0.2-0.1c-5.5-2.9-5.6-9.9-5.6-9.9C13.1,13.3,13.7,13.2,14.6,15.9z"/>
	</g>
	<g>
	</g>
</g>
</svg>
